<?xml version="1.0" encoding="UTF-8" standalone="no"?>
<svg
   height="800"
   viewBox="0 -960 640 800"
   width="640"
   fill="#511212"
   version="1.1"
   id="svg1"
   sodipodi:docname="Logo.svg"
   inkscape:version="1.3.2 (091e20e, 2023-11-25, custom)"
   inkscape:export-filename="Logo.png"
   inkscape:export-xdpi="96"
   inkscape:export-ydpi="96"
   xmlns:inkscape="http://www.inkscape.org/namespaces/inkscape"
   xmlns:sodipodi="http://sodipodi.sourceforge.net/DTD/sodipodi-0.dtd"
   xmlns="http://www.w3.org/2000/svg"
   xmlns:svg="http://www.w3.org/2000/svg">
  <defs
     id="defs1" />
  <sodipodi:namedview
     id="namedview1"
     pagecolor="#ffffff"
     bordercolor="#666666"
     borderopacity="1.0"
     inkscape:showpageshadow="2"
     inkscape:pageopacity="0.0"
     inkscape:pagecheckerboard="0"
     inkscape:deskcolor="#d1d1d1"
     inkscape:zoom="0.9087427"
     inkscape:cx="291.06148"
     inkscape:cy="193.12397"
     inkscape:window-width="2400"
     inkscape:window-height="1494"
     inkscape:window-x="-11"
     inkscape:window-y="-11"
     inkscape:window-maximized="1"
     inkscape:current-layer="svg1" />
  <path
     id="path3"
     style="display:inline;fill:#cf2e2e;fill-opacity:1;stroke-width:0.833333"
     d="m 520,-450 c -18.33332,0 -34.01477,6.54081 -47.07032,19.59635 -13.05554,13.05555 -19.59635,28.737 -19.59635,47.07032 V -350 h -5.01301 c -7.77778,0 -14.43144,2.77778 -19.98699,8.33333 -5.55555,5.55555 -8.33333,12.20921 -8.33333,19.98699 v 110.02603 c 0,7.77777 2.77778,14.43143 8.33333,19.98698 5.55555,5.55555 12.20921,8.33334 19.98699,8.33334 h 143.35936 c 7.77778,0 14.43144,-2.77779 19.98699,-8.33334 5.55555,-5.55555 8.33333,-12.20921 8.33333,-19.98698 v -110.02603 c 0,-7.77778 -2.77778,-14.43144 -8.33333,-19.98699 C 606.11112,-347.22222 599.45746,-350 591.67968,-350 h -5.01301 v -33.33333 c 0,-18.33332 -6.54081,-34.01477 -19.59635,-47.07032 C 554.01477,-443.45919 538.33332,-450 520,-450 Z m 0,33.33333 c 9.44443,0 17.37414,3.18144 23.76302,9.57032 6.38888,6.38887 9.57031,14.31858 9.57031,23.76302 V -350 h -66.66666 v -33.33333 c 0,-9.44444 3.18143,-17.37415 9.57031,-23.76302 6.38888,-6.38888 14.31859,-9.57032 23.76302,-9.57032 z" />
  <path
     style="display:none"
     d="M 320,-960 0,-840 v 243.98438 c 0,101.33323 30.135477,193.48445 90.46875,276.48437 C 150.80202,-236.53133 227.33343,-183.33331 320,-160 c 20.83774,-5.24691 40.79721,-12.12663 60,-20.39062 v -89.53126 c -18.86664,10.71185 -38.85171,19.3968 -60,25.9375 V -560 H 82.03125 C 80.697918,-567.33333 80,-573.30209 80,-577.96875 V -785 l 240,-90 v 315 h 237.96875 c -1.98449,19.66451 -5.37919,38.75819 -10,57.42188 14.04722,4.3304 26.71655,12.10718 37.96875,23.35937 13.30032,13.30033 21.68527,28.57364 25.3125,45.78125 C 630.39735,-484.70501 640,-538.92986 640,-596.01562 V -840 Z"
     id="path1" />
  <path
     id="path4"
     style="display:none"
     d="M 320,-960 0,-840 v 243.98438 C 0,-494.6825 30.135537,-402.53109 90.46875,-319.53125 150.80196,-236.53141 227.33352,-183.33329 320,-160 c 20.83772,-5.2469 40.79723,-12.12664 60,-20.39062 v -89.53126 c -18.86662,10.71184 -38.85173,19.39681 -60,25.9375 V -420 c 0,5.66665 -1.94792,10.38543 -5.78125,14.21875 C 310.38542,-401.94792 305.66665,-400 300,-400 h -48.51562 c -3.66666,0 -7.06771,-0.90106 -10.23438,-2.73438 -3.16667,-1.83332 -5.59896,-4.40104 -7.26562,-7.73437 L 195,-480 h 28.98438 l 20,40 H 290 v -20 h -33.98438 l -20,-40 h -52.03124 l -28.51563,-50 c -0.66666,-1.6667 -1.21875,-3.3333 -1.71875,-5 -0.5,-1.6667 -0.78125,-3.3333 -0.78125,-5 H 82.03125 C 80.697919,-567.33332 80,-573.30209 80,-577.96875 V -785 l 240,-90 v 175 c 0,-5.66669 -1.94792,-10.38545 -5.78125,-14.21875 C 310.38543,-718.05215 305.66665,-720 300,-720 h -48.51562 c -3.66666,0 -7.06771,0.90108 -10.23438,2.73438 -3.16667,1.83339 -5.59896,4.40107 -7.26562,7.73437 L 195,-640 h 28.98438 l 20,-40 H 290 v 20 h -33.98438 l -20,40 h -52.03124 l -28.51563,50 c -1.66666,5.33329 -2.5,8.6667 -2.5,10 H 190 l 20,-20 h 46.01562 l 10,20 H 320 342.42188 c -0.34952,-3.06943 -1.06215,-6.15735 -2.10938,-9.29688 C 336.66407,-580.23456 329.9288,-588.27331 320,-593.4375 V -600 h -50 l 20,-20 h 30 v -8.82812 c 1.08273,0.30389 2.12661,0.50367 3.20312,0.85937 11.14324,3.6823 21.0063,9.45433 29.53126,17.26563 l 28.67187,-21.95313 -1.09375,-3.28125 c -4.442,-13.31679 -3.5561,-26.16256 2.65625,-38.59375 6.21235,-12.43109 15.9801,-20.8705 29.29687,-25.3125 4.9938,-1.6657 9.89637,-2.56688 14.76563,-2.73437 8.11544,-0.2791 16.05863,1.50792 23.82813,5.39062 12.43113,6.21229 20.8705,15.98009 25.3125,29.29688 4.44199,13.31678 3.55609,26.24068 -2.65626,38.67187 -6.21239,12.43109 -15.98008,20.8705 -29.29687,25.3125 -8.52274,2.8429 -17.00014,3.43757 -25.39063,1.79687 -8.39049,-1.64079 -15.78326,-5.0756 -22.26562,-10.3125 l -28.75,21.5625 c 4.94441,9.62372 7.62,19.92338 8.20312,30.85938 h 181.95313 c -1.98449,19.66449 -5.37919,38.7582 -10,57.42188 14.04721,4.33039 26.71656,12.10719 37.96875,23.35937 13.30031,13.30032 21.68527,28.57366 25.3125,45.78125 C 630.39733,-484.70496 640,-538.92992 640,-596.01562 V -840 Z m 56.01562,400 h -33.59374 c 0.8958,7.8669 -0.51607,15.55952 -4.21876,22.96875 -4.12955,8.26339 -10.18688,14.32385 -18.20312,18.35937 v 35.9375 c 1.40353,-0.38165 2.82257,-0.8624 4.21875,-1.32812 12.38461,-4.13106 22.99856,-11.0131 31.875,-20.78125 l 32.1875,20.78125 c -1.59709,4.97228 -2.41235,10.19845 -2.5,15.70312 -0.0876,5.50467 0.7232,10.92328 2.5,16.25 4.442,13.31678 12.88135,23.08454 25.3125,29.29688 12.43114,6.21235 25.35509,7.09825 38.67187,2.65625 13.31679,-4.442 23.08454,-12.88135 29.29688,-25.3125 6.21234,-12.43115 7.09825,-25.27696 2.65625,-38.59375 -4.442,-13.31679 -12.88136,-23.16265 -25.3125,-29.375 -12.43114,-6.21235 -25.35512,-7.09826 -38.67187,-2.65625 -3.7287,1.24376 -7.02608,2.79933 -10,4.53125 -2.97393,1.73192 -5.71763,3.7067 -8.20313,6.01562 l -32.10937,-20.3125 c 4.61451,-11.01028 6.66252,-22.12818 6.17187,-33.35937 -0.0115,-0.26257 -0.0642,-0.51946 -0.0781,-0.78125 z m -110,0 h -22.03124 l 20,40 H 320 v -20 h -43.98438 z m 161.875,-108.82812 c -1.64141,0.0728 -3.30211,0.3712 -5,0.9375 -4.5277,1.51029 -7.80255,4.27487 -9.84374,8.35937 -2.04121,4.0845 -2.29153,8.44105 -0.78126,12.96875 1.51028,4.5277 4.27486,7.80255 8.35938,9.84375 4.08453,2.0412 8.44103,2.29155 12.96875,0.78125 4.5277,-1.5103 7.80255,-4.27488 9.84375,-8.35938 2.0412,-4.08449 2.29155,-8.36292 0.78125,-12.89062 -1.5103,-4.5277 -4.27483,-7.80255 -8.35937,-9.84375 -2.04225,-1.0206 -4.17507,-1.66408 -6.32813,-1.79687 -0.53826,-0.033 -1.09349,-0.024 -1.64063,0 z M 435.9375,-485 c 0.54715,-0.0243 1.10238,-0.0332 1.64062,0 2.15305,0.13272 4.20771,0.69815 6.25,1.71875 4.0845,2.04121 6.92726,5.31604 8.4375,9.84375 1.5103,4.5277 1.26,8.88422 -0.78124,12.96875 -2.0412,4.08452 -5.39418,6.8491 -9.92188,8.35937 -4.5277,1.51027 -8.80611,1.18184 -12.89062,-0.85937 -4.08453,-2.0412 -6.8491,-5.31603 -8.35938,-9.84375 -1.51028,-4.52771 -1.25996,-8.80611 0.78125,-12.89062 2.04121,-4.08452 5.31604,-6.8491 9.84375,-8.35938 1.69789,-0.56635 3.3586,-0.8648 5,-0.9375 z" />
  <text
     xml:space="preserve"
     style="font-size:94.5666px;line-height:1.25;font-family:sans-serif;letter-spacing:0px;word-spacing:0px;display:none;stroke-width:17.7313"
     x="124.0264"
     y="-731.16919"
     id="text4"
     transform="scale(1.0000203,0.9999797)"><tspan
       sodipodi:role="line"
       id="tspan4"
       style="font-style:normal;font-variant:normal;font-weight:900;font-stretch:normal;font-size:94.5666px;font-family:Arial;-inkscape-font-specification:'Arial, Heavy';font-variant-ligatures:normal;font-variant-caps:normal;font-variant-numeric:normal;font-variant-east-asian:normal;stroke-width:17.7313"
       x="0"
       y="0">SPAIML</tspan></text>
  <path
     id="path5"
     style="display:inline;fill:#cf2e2e;fill-opacity:1"
     d="M 320,-960 0,-840 v 243.98438 c 0,101.33301 30.135597,193.48461 90.46875,276.48437 C 150.8019,-236.53149 227.33361,-183.33327 320,-160 c 20.8377,-5.24689 40.79725,-12.12665 60,-20.39062 v -89.53126 c -18.8666,10.71183 -38.85175,19.39682 -60,25.9375 V -420 c 0,5.66664 -1.94792,10.38543 -5.78125,14.21875 C 310.38542,-401.94792 305.66664,-400 300,-400 h -48.51562 c -3.66666,0 -7.06771,-0.90106 -10.23438,-2.73438 -3.16667,-1.83331 -5.59897,-4.40104 -7.26562,-7.73437 L 195,-480 h 28.98438 l 20,40 H 290 v -20 h -33.98438 l -20,-40 h -52.03124 l -28.51563,-50 c -0.66666,-1.6667 -1.21875,-3.3333 -1.71875,-5 -0.5,-1.6667 -0.78125,-3.3333 -0.78125,-5 H 82.03125 C 80.69792,-567.33331 80,-573.30209 80,-577.96875 V -785 l 240,-90 v 175 c 0,-5.66668 -1.94792,-10.38545 -5.78125,-14.21875 C 310.38543,-718.05215 305.66664,-720 300,-720 h -48.51562 c -3.66666,0 -7.06771,0.90108 -10.23438,2.73438 -3.16667,1.83338 -5.59897,4.40107 -7.26562,7.73437 L 195,-640 h 28.98438 l 20,-40 H 290 v 20 h -33.98438 l -20,40 h -52.03124 l -28.51563,50 c -1.66666,5.33328 -2.5,8.6667 -2.5,10 H 190 l 20,-20 h 46.01562 l 10,20 H 320 342.42188 c -0.34952,-3.06943 -1.06215,-6.15735 -2.10938,-9.29688 C 336.66407,-580.23454 329.92879,-588.27332 320,-593.4375 V -600 h -50 l 20,-20 h 30 v -8.82812 c 1.08273,0.30388 2.12662,0.50367 3.20312,0.85937 11.14323,3.6823 21.0063,9.45433 29.53126,17.26563 l 28.67187,-21.95313 -1.09375,-3.28125 c -4.442,-13.31678 -3.55609,-26.16257 2.65625,-38.59375 6.21234,-12.43108 15.98012,-20.8705 29.29687,-25.3125 4.9938,-1.6657 9.89637,-2.56689 14.76563,-2.73437 8.11543,-0.2791 16.05863,1.50792 23.82813,5.39062 12.43111,6.21228 20.8705,15.9801 25.3125,29.29688 4.44198,13.31676 3.55609,26.24069 -2.65626,38.67187 -6.21238,12.43108 -15.98009,20.8705 -29.29687,25.3125 -8.52273,2.8429 -17.00014,3.43757 -25.39063,1.79687 -8.39048,-1.64078 -15.78327,-5.0756 -22.26562,-10.3125 l -28.75,21.5625 c 4.94441,9.62372 7.62001,19.92339 8.20312,30.85938 h 181.95313 c -1.98449,19.66447 -5.37919,38.75821 -10,57.42188 14.0472,4.33038 26.71657,12.1072 37.96875,23.35937 13.3003,13.30031 21.68527,28.57368 25.3125,45.78125 C 630.39731,-484.70491 640,-538.92998 640,-596.01562 V -840 Z m 56.01562,400 h -33.59374 c 0.89579,7.86689 -0.51607,15.55953 -4.21876,22.96875 -4.12954,8.26338 -10.18689,14.32386 -18.20312,18.35937 v 35.9375 c 1.40353,-0.38164 2.82257,-0.8624 4.21875,-1.32812 12.3846,-4.13106 22.99857,-11.01311 31.875,-20.78125 l 32.1875,20.78125 c -1.59709,4.97228 -2.41235,10.19846 -2.5,15.70312 -0.0876,5.50467 0.7232,10.92329 2.5,16.25 4.442,13.31677 12.88136,23.08455 25.3125,29.29688 12.43113,6.21234 25.35511,7.09825 38.67187,2.65625 13.31678,-4.442 23.08455,-12.88136 29.29688,-25.3125 6.21233,-12.43114 7.09825,-25.27697 2.65625,-38.59375 -4.442,-13.31678 -12.88137,-23.16266 -25.3125,-29.375 -12.43113,-6.21234 -25.35514,-7.09826 -38.67187,-2.65625 -3.7287,1.24376 -7.02609,2.79933 -10,4.53125 -2.97393,1.73192 -5.71763,3.70671 -8.20313,6.01562 l -32.10937,-20.3125 c 4.6145,-11.01026 6.66252,-22.12819 6.17187,-33.35937 -0.0115,-0.26257 -0.0642,-0.51946 -0.0781,-0.78125 z m -110,0 h -22.03124 l 20,40 H 320 v -20 h -43.98438 z m -114.6875,-240 c -7.04953,0 -12.65526,0.87085 -16.71874,2.65625 -4.03271,1.75462 -7.03076,4.23469 -9.0625,7.34375 -2.00096,3.07827 -2.96876,6.3653 -2.96876,9.84375 0,5.29463 1.91903,9.62999 5.85938,13.04687 3.90957,3.41689 10.43575,6.14069 19.60938,8.20313 5.60268,1.23131 9.16392,2.52103 10.70312,3.90625 1.5392,1.38522 2.34375,3.01101 2.34375,4.76562 0,1.84697 -0.79032,3.42775 -2.42187,4.84376 -1.60077,1.38522 -3.88896,2.10937 -6.875,2.10937 -4.00192,0 -7.142,-1.40096 -9.29688,-4.14063 -1.32371,-1.69305 -2.14715,-4.11156 -2.57812,-7.34374 l -19.92188,1.25 c 0.5849,6.83376 3.06711,12.44228 7.5,16.875 4.43289,4.43271 12.47116,6.64062 23.98438,6.64062 6.55699,0 11.94024,-0.93475 16.25,-2.8125 4.30975,-1.90853 7.67697,-4.69623 10.07812,-8.35938 2.40115,-3.66314 3.59375,-7.69088 3.59375,-12.03124 0,-3.69393 -0.91812,-7.01408 -2.73437,-10 -1.78548,-2.98593 -4.62262,-5.49913 -8.59376,-7.5 -3.94035,-2.03167 -10.46652,-4.04553 -19.60937,-6.01563 -3.69408,-0.76957 -6.04616,-1.52918 -7.03125,-2.42187 -1.01587,-0.86192 -1.5625,-1.89136 -1.5625,-2.96876 0,-1.47757 0.64364,-2.73416 1.875,-3.75 1.23136,-1.04661 3.03681,-1.5625 5.46875,-1.5625 2.95526,0 5.29079,0.72416 6.95313,2.10938 1.69311,1.38522 2.75792,3.59313 3.28124,6.64062 l 19.76563,-1.17187 c -0.86195,-7.01847 -3.56897,-12.11109 -8.125,-15.3125 C 166.5685,-798.38844 159.97843,-800 151.32812,-800 Z m 40.54688,1.17188 v 67.65624 h 21.01562 V -756.25 h 11.40626 c 8.43481,0 14.73385,-1.93341 18.82812,-5.78125 4.12505,-3.84784 6.17188,-9.18186 6.17188,-16.01563 -10e-6,-6.64907 -1.9167,-11.78904 -5.70313,-15.39062 -3.75565,-3.60158 -9.38026,-5.39062 -16.95313,-5.39062 z m 78.90625,0 -25.39063,67.65624 h 21.32813 L 270,-742.34375 h 23.82812 l 3.35938,11.17187 h 21.875 l -25.46875,-67.65624 z m 55.78125,0 h 21.01562 v 67.65624 H 326.5625 Z m 35.78125,0 h 27.5 l 10.625,41.17187 10.54687,-41.17187 h 27.42188 v 67.65624 h -17.03125 v -51.64062 l -13.28125,51.64062 h -15.46875 l -13.20313,-51.64062 v 51.64062 h -17.10937 z m 89.45313,0 h 20.9375 v 51.01562 h 32.65624 v 16.64062 h -53.59374 z m -238.90626,13.75 h 5.9375 c 3.90957,0 6.55269,0.70992 7.96876,2.1875 1.41606,1.47757 2.10937,3.26661 2.10937,5.39062 0,2.18557 -0.79032,4.05274 -2.42187,5.46875 -1.63156,1.38522 -4.48293,2.03125 -8.51563,2.03125 h -5.07813 z m 69.0625,3.75 7.5,24.375 h -14.92187 z m 145.9375,112.5 c -1.6414,0.0728 -3.30211,0.3712 -5,0.9375 -4.52769,1.51028 -7.80256,4.27487 -9.84374,8.35937 -2.04121,4.0845 -2.29152,8.44105 -0.78126,12.96875 1.51028,4.5277 4.27486,7.80255 8.35938,9.84375 4.08453,2.0412 8.44103,2.29155 12.96875,0.78125 4.5277,-1.5103 7.80255,-4.27488 9.84375,-8.35938 2.0412,-4.08448 2.29155,-8.36292 0.78125,-12.89062 -1.5103,-4.5277 -4.27484,-7.80255 -8.35937,-9.84375 -2.04225,-1.0206 -4.17507,-1.66409 -6.32813,-1.79687 -0.53826,-0.033 -1.09349,-0.024 -1.64063,0 z M 435.9375,-485 c 0.54715,-0.0243 1.10239,-0.0332 1.64062,0 2.15305,0.13272 4.20772,0.69815 6.25,1.71875 4.0845,2.04121 6.92727,5.31604 8.4375,9.84375 1.5103,4.5277 1.25999,8.88422 -0.78124,12.96875 -2.0412,4.08452 -5.39418,6.84911 -9.92188,8.35937 -4.5277,1.51027 -8.80612,1.18184 -12.89062,-0.85937 -4.08453,-2.0412 -6.8491,-5.31603 -8.35938,-9.84375 -1.51028,-4.52771 -1.25996,-8.80612 0.78125,-12.89062 2.04121,-4.08452 5.31604,-6.8491 9.84375,-8.35938 1.69789,-0.56635 3.3586,-0.8648 5,-0.9375 z" />
</svg>
